# This file uses centimeters as units for non-parametric coordinates.

mtllib perforatedCopperParts.mtl
g default
v 4.383362 -0.125402 12.804287
v 1.948317 -0.125402 14.687673
v 2.068496 -0.125402 14.589691
v 2.492183 -0.125402 14.205599
v 2.889384 -0.125402 13.876790
v 2.994602 -0.125402 13.792618
v 3.378650 -0.125402 13.503265
v 3.802154 -0.125402 13.192869
v 4.275637 -0.125402 12.871951
v 13.379020 3.817822 9.992230
v 13.465431 3.817822 9.987865
v 14.338942 3.832283 9.979216
v 15.471910 3.832283 10.039757
v 16.388662 3.832283 10.134892
v 16.959473 3.832283 10.247324
v 17.495686 3.832283 10.333810
v 17.997305 3.832283 10.446241
v 18.088385 3.832283 10.454001
v 9.750674 -0.031464 10.493597
v 9.798420 1.877693 10.480836
v 10.455714 2.198047 10.333811
v 11.199496 2.646393 10.195433
v 12.055709 3.152565 10.074351
v 12.609220 3.427345 10.031108
v 8.795180 -0.031464 10.748943
v 7.951079 -0.031464 11.041161
v 4.799100 -0.025206 12.543144
v 5.353031 0.000130 12.219205
v 6.278435 -0.031464 11.734886
v 7.420052 -0.031464 11.241917
v 1.948317 7.163136 14.687673
v 2.068496 7.163137 14.589691
v 2.492183 7.163138 14.205599
v 2.889384 7.163138 13.876790
v 2.994602 7.163137 13.792618
v 3.378650 7.163137 13.503265
v 3.802154 7.163138 13.192869
v 4.275637 7.163139 12.871951
v 4.383362 7.163138 12.804287
v 13.379020 11.760127 9.992229
v 13.465431 11.760127 9.987864
v 14.338942 11.760127 9.979216
v 15.471910 11.760128 10.039757
v 16.388664 11.760128 10.134892
v 16.959473 11.760127 10.247324
v 17.495686 11.760127 10.333810
v 17.997305 11.760126 10.446241
v 18.088385 11.760125 10.454001
v 9.750674 9.652821 10.493597
v 9.798420 9.685625 10.480836
v 10.455714 10.073809 10.333811
v 11.199496 10.507411 10.195433
v 12.055709 10.993132 10.074351
v 12.609220 11.321568 10.031108
v 8.795181 9.652822 10.748943
v 7.951079 9.652822 11.041162
v 4.799100 7.483530 12.543144
v 5.353031 7.886884 12.219206
v 6.278435 8.534504 11.734886
v 7.420052 9.301727 11.241917
v 1.979912 7.163138 14.726424
v 2.101085 7.163138 14.627589
v 2.101084 -0.125402 14.627589
v 1.979912 -0.125402 14.726424
v 2.524916 7.163137 14.243380
v 2.524916 -0.125402 14.243380
v 2.920943 7.163137 13.915570
v 2.920943 -0.125402 13.915570
v 3.025263 7.163137 13.832107
v 3.025263 -0.125402 13.832107
v 3.408473 7.163138 13.543396
v 3.408472 -0.125402 13.543396
v 3.830959 7.163138 13.233727
v 3.830959 -0.125402 13.233727
v 4.302961 7.163139 12.913815
v 4.302961 -0.125402 12.913815
v 4.409957 7.163137 12.846627
v 4.409957 -0.125402 12.846627
v 13.381542 11.760128 10.042166
v 13.466940 11.760127 10.037830
v 13.466940 3.817822 10.037831
v 13.381542 3.817822 10.042166
v 14.337855 11.760126 10.029179
v 14.337855 3.832283 10.029179
v 15.467995 11.760128 10.089587
v 15.467994 3.832283 10.089587
v 16.381252 11.760128 10.184286
v 16.381250 3.832283 10.184286
v 16.950661 11.760127 10.296534
v 16.950661 3.832283 10.296534
v 17.486237 11.760127 10.382885
v 17.486237 3.832283 10.382885
v 17.989714 11.760127 10.495546
v 17.989714 3.832283 10.495546
v 18.084139 11.760127 10.503821
v 18.084139 3.832283 10.503821
v 9.763584 9.652820 10.541903
v 9.810332 9.685625 10.529386
v 9.810332 1.877693 10.529385
v 9.763584 -0.031464 10.541901
v 10.465744 10.073809 10.382786
v 10.465744 2.198047 10.382787
v 11.207570 10.507411 10.244764
v 11.207569 2.646393 10.244765
v 12.061157 10.993132 10.124029
v 12.061156 3.152565 10.124029
v 12.612429 11.321568 10.081001
v 12.612429 3.427345 10.081000
v 8.809814 9.652820 10.796721
v 8.809813 -0.031464 10.796720
v 7.968097 9.652823 11.088170
v 7.968097 -0.031464 11.088169
v 4.825019 7.483528 12.585896
v 4.825019 -0.025206 12.585896
v 5.377244 7.886884 12.262937
v 5.377244 0.000130 12.262936
v 6.299938 8.534505 11.779988
v 6.299938 -0.031464 11.779988
v 7.438803 9.301730 11.288252
v 7.438803 -0.031464 11.288252
vt 62.000183 -0.150805
vt 0.000000 -0.150805
vt 0.000000 -0.150805
vt 62.000183 -0.150805
vt 0.999999 -0.150805
vt 0.999999 -0.150805
vt 2.000002 -0.150805
vt 2.000002 -0.150805
vt 2.999999 -0.150805
vt 2.999999 -0.150805
vt 4.000000 -0.150805
vt 4.000000 -0.150805
vt 5.000000 -0.150805
vt 5.000000 -0.150805
vt 6.000000 -0.150805
vt 6.000000 -0.150805
vt 6.205792 -0.150805
vt 6.205792 -0.150805
vt 17.899076 -0.886162
vt 18.000000 -0.886162
vt 18.000000 -0.886162
vt 17.899076 -0.886162
vt 19.000000 -0.886162
vt 19.000000 -0.886162
vt 20.000000 -0.886162
vt 20.000000 -0.886162
vt 21.000000 -0.886162
vt 21.000000 -0.886162
vt 22.000000 -0.886162
vt 22.000000 -0.886162
vt 23.000000 -0.886162
vt 23.000000 -0.886162
vt 24.000000 -0.886162
vt 24.000000 -0.886162
vt 26.000000 -0.886162
vt 26.000000 -0.886162
vt 12.952407 -0.549068
vt 13.000000 -0.554315
vt 13.000000 -0.554315
vt 12.952407 -0.549068
vt 14.000000 -0.616411
vt 14.000000 -0.616411
vt 15.000000 -0.685772
vt 15.000000 -0.685772
vt 16.000000 -0.763470
vt 16.000000 -0.763470
vt 17.000000 -0.816008
vt 17.000000 -0.816008
vt 12.000000 -0.549068
vt 12.000000 -0.549068
vt 10.748784 -0.549068
vt 10.748784 -0.549068
vt 7.000000 -0.202056
vt 7.000000 -0.202056
vt 8.000000 -0.266579
vt 8.000000 -0.266579
vt 9.000000 -0.370176
vt 9.000000 -0.370176
vt 10.000000 -0.492905
vt 10.000000 -0.492905
vt 62.000183 -0.150805
vt 0.000000 -0.150805
vt 0.000000 -0.150805
vt 62.000183 -0.150805
vt 0.999999 -0.150805
vt 0.999999 -0.150805
vt 2.000002 -0.150805
vt 2.000002 -0.150805
vt 2.999999 -0.150805
vt 2.999999 -0.150805
vt 4.000000 -0.150805
vt 4.000000 -0.150805
vt 5.000000 -0.150805
vt 5.000000 -0.150805
vt 6.000000 -0.150805
vt 6.000000 -0.150805
vt 6.205792 -0.150805
vt 6.205792 -0.150805
vt 17.899076 -0.886162
vt 18.000000 -0.886162
vt 18.000000 -0.886162
vt 17.899076 -0.886162
vt 19.000000 -0.886162
vt 19.000000 -0.886162
vt 20.000000 -0.886162
vt 20.000000 -0.886162
vt 21.000000 -0.886162
vt 21.000000 -0.886162
vt 22.000000 -0.886162
vt 22.000000 -0.886162
vt 23.000000 -0.886162
vt 23.000000 -0.886162
vt 24.000000 -0.886162
vt 24.000000 -0.886162
vt 26.000000 -0.886162
vt 26.000000 -0.886162
vt 12.952407 -0.549068
vt 13.000000 -0.554315
vt 13.000000 -0.554315
vt 12.952407 -0.549068
vt 14.000000 -0.616411
vt 14.000000 -0.616411
vt 15.000000 -0.685772
vt 15.000000 -0.685772
vt 16.000000 -0.763470
vt 16.000000 -0.763470
vt 17.000000 -0.816008
vt 17.000000 -0.816008
vt 12.000000 -0.549068
vt 12.000000 -0.549068
vt 10.748784 -0.549068
vt 10.748784 -0.549068
vt 7.000000 -0.202056
vt 7.000000 -0.202056
vt 8.000000 -0.266579
vt 8.000000 -0.266579
vt 9.000000 -0.370176
vt 9.000000 -0.370176
vt 10.000000 -0.492905
vt 10.000000 -0.492905
vt 62.000183 -0.150805
vt 0.000000 -0.150805
vt 0.000000 -0.150805
vt 62.000183 -0.150805
vt 0.999999 -0.150805
vt 0.999999 -0.150805
vt 2.000002 -0.150805
vt 2.000002 -0.150805
vt 2.999999 -0.150805
vt 2.999999 -0.150805
vt 4.000000 -0.150805
vt 4.000000 -0.150805
vt 5.000000 -0.150805
vt 5.000000 -0.150805
vt 6.000000 -0.150805
vt 6.000000 -0.150805
vt 6.205792 -0.150805
vt 6.205792 -0.150805
vt 17.899076 -0.886162
vt 18.000000 -0.886162
vt 18.000000 -0.886162
vt 17.899076 -0.886162
vt 19.000000 -0.886162
vt 19.000000 -0.886162
vt 20.000000 -0.886162
vt 20.000000 -0.886162
vt 21.000000 -0.886162
vt 21.000000 -0.886162
vt 22.000000 -0.886162
vt 22.000000 -0.886162
vt 23.000000 -0.886162
vt 23.000000 -0.886162
vt 24.000000 -0.886162
vt 24.000000 -0.886162
vt 26.000000 -0.886162
vt 26.000000 -0.886162
vt 12.952407 -0.549068
vt 13.000000 -0.554315
vt 13.000000 -0.554315
vt 12.952407 -0.549068
vt 14.000000 -0.616411
vt 14.000000 -0.616411
vt 15.000000 -0.685772
vt 15.000000 -0.685772
vt 16.000000 -0.763470
vt 16.000000 -0.763470
vt 17.000000 -0.816008
vt 17.000000 -0.816008
vt 12.000000 -0.549068
vt 12.000000 -0.549068
vt 10.748784 -0.549068
vt 10.748784 -0.549068
vt 7.000000 -0.202056
vt 7.000000 -0.202056
vt 8.000000 -0.266579
vt 8.000000 -0.266579
vt 9.000000 -0.370176
vt 9.000000 -0.370176
vt 10.000000 -0.492905
vt 10.000000 -0.492905
vn 0.632064 -0.000000 0.774916
vn 0.632064 -0.000000 0.774916
vn 0.632064 -0.000000 0.774916
vn 0.632064 -0.000000 0.774916
vn 0.671627 -0.000000 0.740889
vn 0.671627 -0.000000 0.740889
vn 0.637640 0.000000 0.770334
vn 0.637640 0.000000 0.770334
vn 0.624727 0.000000 0.780843
vn 0.624727 0.000000 0.780843
vn 0.601738 -0.000000 0.798693
vn 0.601738 -0.000000 0.798693
vn 0.591171 -0.000000 0.806546
vn 0.591171 -0.000000 0.806546
vn 0.561052 -0.000000 0.827781
vn 0.561052 -0.000000 0.827781
vn 0.531794 -0.000000 0.846874
vn 0.531794 -0.000000 0.846874
vn 0.050695 0.000000 0.998714
vn 0.050695 0.000000 0.998714
vn 0.050695 0.000000 0.998714
vn 0.050695 0.000000 0.998714
vn 0.009934 0.000000 0.999951
vn 0.009934 0.000000 0.999951
vn -0.053376 0.000000 0.998574
vn -0.053376 0.000000 0.998574
vn -0.103141 0.000000 0.994667
vn -0.103141 0.000000 0.994667
vn -0.193408 0.000000 0.981119
vn -0.193408 0.000000 0.981119
vn -0.159176 0.000000 0.987250
vn -0.159176 0.000000 0.987250
vn -0.218366 -0.000000 0.975867
vn -0.218366 -0.000000 0.975867
vn -0.087304 0.000000 0.996182
vn -0.087304 0.000000 0.996182
vn 0.258638 -0.000000 0.965974
vn 0.258638 -0.000000 0.965974
vn 0.258638 -0.000000 0.965974
vn 0.258638 -0.000000 0.965974
vn 0.218281 0.000000 0.975886
vn 0.218281 0.000000 0.975886
vn 0.182917 0.000000 0.983128
vn 0.182917 0.000000 0.983128
vn 0.140051 0.000000 0.990144
vn 0.140051 0.000000 0.990144
vn 0.077816 -0.000000 0.996968
vn 0.077816 -0.000000 0.996968
vn 0.258116 -0.000000 0.966114
vn 0.258116 -0.000000 0.966114
vn 0.327197 -0.000000 0.944956
vn 0.327197 -0.000000 0.944956
vn 0.531931 -0.000000 0.846787
vn 0.531931 -0.000000 0.846787
vn 0.504836 -0.000000 0.863215
vn 0.504836 -0.000000 0.863215
vn 0.463730 -0.000000 0.885977
vn 0.463730 -0.000000 0.885977
vn 0.396405 0.000000 0.918076
vn 0.396405 0.000000 0.918076
vn -0.631895 0.000000 -0.775054
vn -0.631895 0.000000 -0.775054
vn -0.631895 0.000000 -0.775054
vn -0.631895 0.000000 -0.775054
vn -0.671641 0.000000 -0.740877
vn -0.671641 0.000000 -0.740877
vn -0.637672 -0.000000 -0.770308
vn -0.637672 -0.000000 -0.770308
vn -0.624682 0.000000 -0.780879
vn -0.624682 0.000000 -0.780879
vn -0.601751 0.000000 -0.798684
vn -0.601751 0.000000 -0.798684
vn -0.591149 -0.000000 -0.806562
vn -0.591149 -0.000000 -0.806562
vn -0.561054 -0.000000 -0.827779
vn -0.561054 -0.000000 -0.827779
vn -0.531894 0.000000 -0.846811
vn -0.531894 0.000000 -0.846811
vn -0.050449 -0.000000 -0.998727
vn -0.050449 -0.000000 -0.998727
vn -0.050449 -0.000000 -0.998727
vn -0.050449 -0.000000 -0.998727
vn -0.009902 -0.000000 -0.999951
vn -0.009902 -0.000000 -0.999951
vn 0.053360 -0.000000 -0.998575
vn 0.053360 -0.000000 -0.998575
vn 0.103219 -0.000000 -0.994659
vn 0.103219 -0.000000 -0.994659
vn 0.193257 -0.000000 -0.981148
vn 0.193257 -0.000000 -0.981148
vn 0.159233 -0.000000 -0.987241
vn 0.159233 -0.000000 -0.987241
vn 0.218710 -0.000000 -0.975790
vn 0.218710 -0.000000 -0.975790
vn 0.084893 0.000000 -0.996390
vn 0.084893 0.000000 -0.996390
vn -0.258204 -0.000000 -0.966090
vn -0.258204 -0.000000 -0.966090
vn -0.258204 -0.000000 -0.966090
vn -0.258204 -0.000000 -0.966090
vn -0.218288 -0.000000 -0.975884
vn -0.218288 -0.000000 -0.975884
vn -0.182908 -0.000000 -0.983130
vn -0.182908 -0.000000 -0.983130
vn -0.140022 -0.000000 -0.990148
vn -0.140022 -0.000000 -0.990148
vn -0.077889 -0.000000 -0.996962
vn -0.077889 -0.000000 -0.996962
vn -0.258180 0.000000 -0.966097
vn -0.258180 0.000000 -0.966097
vn -0.327139 0.000000 -0.944976
vn -0.327139 0.000000 -0.944976
vn -0.531911 -0.000000 -0.846800
vn -0.531911 -0.000000 -0.846800
vn -0.504815 0.000000 -0.863228
vn -0.504815 0.000000 -0.863228
vn -0.463694 0.000000 -0.885995
vn -0.463694 0.000000 -0.885995
vn -0.396435 -0.000000 -0.918063
vn -0.396435 -0.000000 -0.918063
vn -0.000020 1.000000 -0.000023
vn -0.000020 1.000000 -0.000023
vn -0.000020 1.000000 -0.000023
vn -0.000020 1.000000 -0.000023
vn 0.000000 -1.000000 0.000000
vn 0.000000 -1.000000 0.000000
vn 0.000000 -1.000000 0.000000
vn 0.000000 -1.000000 0.000000
vn -0.775037 0.000000 0.631915
vn -0.775037 0.000000 0.631915
vn -0.775037 0.000000 0.631915
vn -0.775037 0.000000 0.631915
vn -0.000000 1.000000 -0.000004
vn -0.000000 1.000000 -0.000004
vn 0.000000 -1.000000 -0.000000
vn 0.000000 -1.000000 -0.000000
vn 0.000012 1.000000 0.000015
vn 0.000012 1.000000 0.000015
vn 0.000000 -1.000000 0.000000
vn 0.000000 -1.000000 0.000000
vn 0.000009 1.000000 0.000011
vn 0.000009 1.000000 0.000011
vn 0.000000 -1.000000 -0.000000
vn 0.000000 -1.000000 -0.000000
vn -0.000007 1.000000 -0.000007
vn -0.000007 1.000000 -0.000007
vn 0.000000 -1.000000 -0.000000
vn 0.000000 -1.000000 -0.000000
vn -0.000006 1.000000 -0.000006
vn -0.000006 1.000000 -0.000006
vn 0.000000 -1.000000 -0.000000
vn 0.000000 -1.000000 -0.000000
vn -0.000001 1.000000 0.000001
vn -0.000001 1.000000 0.000001
vn 0.000000 -1.000000 0.000000
vn 0.000000 -1.000000 0.000000
vn 0.000015 1.000000 -0.000010
vn 0.000015 1.000000 -0.000010
vn 0.000000 -1.000000 -0.000000
vn 0.000000 -1.000000 -0.000000
vn 0.000005 1.000000 -0.000007
vn 0.000005 1.000000 -0.000007
vn 0.000005 1.000000 -0.000007
vn 0.000005 1.000000 -0.000007
vn 0.000000 -1.000000 0.000000
vn 0.000000 -1.000000 0.000000
vn 0.000000 -1.000000 0.000000
vn 0.000000 -1.000000 0.000000
vn 0.000001 1.000000 0.000001
vn 0.000001 1.000000 0.000001
vn 0.000000 -1.000000 -0.000000
vn 0.000000 -1.000000 -0.000000
vn -0.000002 1.000000 0.000005
vn -0.000002 1.000000 0.000005
vn 0.000000 -1.000000 0.000000
vn 0.000000 -1.000000 0.000000
vn 0.000002 1.000000 -0.000023
vn 0.000002 1.000000 -0.000023
vn 0.000000 -1.000000 0.000000
vn 0.000000 -1.000000 0.000000
vn 0.000004 1.000000 -0.000008
vn 0.000004 1.000000 -0.000008
vn 0.000000 -1.000000 0.000000
vn 0.000000 -1.000000 0.000000
vn 0.000000 1.000000 -0.000010
vn 0.000000 1.000000 -0.000010
vn 0.000000 -1.000000 -0.000000
vn 0.000000 -1.000000 -0.000000
vn 0.000003 1.000000 -0.000021
vn 0.000003 1.000000 -0.000021
vn 0.000000 -1.000000 0.000000
vn 0.000000 -1.000000 0.000000
vn 0.000008 1.000000 -0.000053
vn 0.000008 1.000000 -0.000053
vn 0.996388 0.000000 0.084914
vn 0.996388 0.000000 0.084914
vn 0.996388 0.000000 0.084914
vn 0.996388 0.000000 0.084914
vn 0.000000 -1.000000 -0.000000
vn 0.000000 -1.000000 -0.000000
vn -0.539610 0.830478 0.138300
vn -0.539610 0.830478 0.138300
vn -0.539610 0.830478 0.138300
vn -0.539610 0.830478 0.138300
vn 0.000000 -1.000000 0.000000
vn 0.000000 -1.000000 0.000000
vn 0.000000 -1.000000 0.000000
vn 0.000000 -1.000000 0.000000
vn -0.487688 0.866096 0.109719
vn -0.487688 0.866096 0.109719
vn 0.000000 -1.000000 0.000000
vn 0.000000 -1.000000 0.000000
vn -0.489513 0.867324 0.090147
vn -0.489513 0.867324 0.090147
vn 0.000000 -1.000000 0.000000
vn 0.000000 -1.000000 0.000000
vn -0.485795 0.871551 0.066349
vn -0.485795 0.871551 0.066349
vn 0.000000 -1.000000 0.000000
vn 0.000000 -1.000000 0.000000
vn -0.508011 0.860217 0.044171
vn -0.508011 0.860217 0.044171
vn 0.000000 -1.000000 0.000000
vn 0.000000 -1.000000 0.000000
vn 0.000008 1.000000 0.000031
vn 0.000008 1.000000 0.000031
vn 0.000008 1.000000 0.000031
vn 0.000008 1.000000 0.000031
vn 0.000000 -1.000000 0.000000
vn 0.000000 -1.000000 0.000000
vn 0.000005 1.000000 0.000012
vn 0.000005 1.000000 0.000012
vn 0.000000 -1.000000 0.000000
vn 0.000000 -1.000000 0.000000
vn -0.465333 0.837243 0.287211
vn -0.465333 0.837243 0.287211
vn -0.465333 0.837243 0.287211
vn -0.465333 0.837243 0.287211
vn 0.000000 -1.000000 0.000000
vn 0.000000 -1.000000 0.000000
vn -0.460908 0.846267 0.267200
vn -0.460908 0.846267 0.267200
vn 0.000000 -1.000000 0.000000
vn 0.000000 -1.000000 0.000000
vn -0.469055 0.849540 0.241389
vn -0.469055 0.849540 0.241389
vn 0.000000 -1.000000 0.000000
vn 0.000000 -1.000000 0.000000
vn -0.481020 0.850759 0.211727
vn -0.481020 0.850759 0.211727
vn 0.000000 -1.000000 -0.000000
vn 0.000000 -1.000000 -0.000000
vn -0.491754 0.850108 0.188399
vn -0.491754 0.850108 0.188399
s 1
g perforatedCopperLowerWall mStairway
usemtl CpperTranspSG
f 61/121/1 64/124/2 63/123/3 62/122/4
f 62/122/4 63/123/3 66/126/5 65/125/6
f 65/125/6 66/126/5 68/128/7 67/127/8
f 67/127/8 68/128/7 70/130/9 69/129/10
f 69/129/10 70/130/9 72/132/11 71/131/12
f 71/131/12 72/132/11 74/134/13 73/133/14
f 73/133/14 74/134/13 76/136/15 75/135/16
f 75/135/16 76/136/15 78/138/17 77/137/18
f 79/139/19 82/142/20 81/141/21 80/140/22
f 80/140/22 81/141/21 84/144/23 83/143/24
f 83/143/24 84/144/23 86/146/25 85/145/26
f 85/145/26 86/146/25 88/148/27 87/147/28
f 87/147/28 88/148/27 90/150/29 89/149/30
f 89/149/30 90/150/29 92/152/31 91/151/32
f 91/151/32 92/152/31 94/154/33 93/153/34
f 93/153/34 94/154/33 96/156/35 95/155/36
f 97/157/37 100/160/38 99/159/39 98/158/40
f 98/158/40 99/159/39 102/162/41 101/161/42
f 101/161/42 102/162/41 104/164/43 103/163/44
f 103/163/44 104/164/43 106/166/45 105/165/46
f 105/165/46 106/166/45 108/168/47 107/167/48
f 107/167/48 108/168/47 82/142/20 79/139/19
f 109/169/49 110/170/50 100/160/38 97/157/37
f 111/171/51 112/172/52 110/170/50 109/169/49
f 77/137/18 78/138/17 114/174/53 113/173/54
f 113/173/54 114/174/53 116/176/55 115/175/56
f 115/175/56 116/176/55 118/178/57 117/177/58
f 117/177/58 118/178/57 120/180/59 119/179/60
f 119/179/60 120/180/59 112/172/52 111/171/51
s 2
f 31/61/61 32/62/62 3/63/63 2/64/64
f 32/62/62 33/65/65 4/66/66 3/63/63
f 33/65/65 34/67/67 5/68/68 4/66/66
f 34/67/67 35/69/69 6/70/70 5/68/68
f 35/69/69 36/71/71 7/72/72 6/70/70
f 36/71/71 37/73/73 8/74/74 7/72/72
f 37/73/73 38/75/75 9/76/76 8/74/74
f 38/75/75 39/77/77 1/78/78 9/76/76
f 40/79/79 41/80/80 11/81/81 10/82/82
f 41/80/80 42/83/83 12/84/84 11/81/81
f 42/83/83 43/85/85 13/86/86 12/84/84
f 43/85/85 44/87/87 14/88/88 13/86/86
f 44/87/87 45/89/89 15/90/90 14/88/88
f 45/89/89 46/91/91 16/92/92 15/90/90
f 46/91/91 47/93/93 17/94/94 16/92/92
f 47/93/93 48/95/95 18/96/96 17/94/94
f 49/97/97 50/98/98 20/99/99 19/100/100
f 50/98/98 51/101/101 21/102/102 20/99/99
f 51/101/101 52/103/103 22/104/104 21/102/102
f 52/103/103 53/105/105 23/106/106 22/104/104
f 53/105/105 54/107/107 24/108/108 23/106/106
f 54/107/107 40/79/79 10/82/82 24/108/108
f 55/109/109 49/97/97 19/100/100 25/110/110
f 56/111/111 55/109/109 25/110/110 26/112/112
f 39/77/77 57/113/113 27/114/114 1/78/78
f 57/113/113 58/115/115 28/116/116 27/114/114
f 58/115/115 59/117/117 29/118/118 28/116/116
f 59/117/117 60/119/119 30/120/120 29/118/118
f 60/119/119 56/111/111 26/112/112 30/120/120
s 3
f 31/1/121 61/121/122 62/122/123 32/2/124
s 4
f 3/3/125 63/123/126 64/124/127 2/4/128
s off
f 2/4/129 64/124/130 61/121/131 31/1/132
s 3
f 32/2/124 62/122/123 65/125/133 33/5/134
s 4
f 4/6/135 66/126/136 63/123/126 3/3/125
s 3
f 33/5/134 65/125/133 67/127/137 34/7/138
s 4
f 5/8/139 68/128/140 66/126/136 4/6/135
s 3
f 34/7/138 67/127/137 69/129/141 35/9/142
s 4
f 6/10/143 70/130/144 68/128/140 5/8/139
s 3
f 35/9/142 69/129/141 71/131/145 36/11/146
s 4
f 7/12/147 72/132/148 70/130/144 6/10/143
s 3
f 36/11/146 71/131/145 73/133/149 37/13/150
s 4
f 8/14/151 74/134/152 72/132/148 7/12/147
s 3
f 37/13/150 73/133/149 75/135/153 38/15/154
s 4
f 9/16/155 76/136/156 74/134/152 8/14/151
s 3
f 38/15/154 75/135/153 77/137/157 39/17/158
s 4
f 1/18/159 78/138/160 76/136/156 9/16/155
s 6
f 40/19/161 79/139/162 80/140/163 41/20/164
s 4
f 11/21/165 81/141/166 82/142/167 10/22/168
s 6
f 41/20/164 80/140/163 83/143/169 42/23/170
s 4
f 12/24/171 84/144/172 81/141/166 11/21/165
s 6
f 42/23/170 83/143/169 85/145/173 43/25/174
s 4
f 13/26/175 86/146/176 84/144/172 12/24/171
s 6
f 43/25/174 85/145/173 87/147/177 44/27/178
s 4
f 14/28/179 88/148/180 86/146/176 13/26/175
s 6
f 44/27/178 87/147/177 89/149/181 45/29/182
s 4
f 15/30/183 90/150/184 88/148/180 14/28/179
s 6
f 45/29/182 89/149/181 91/151/185 46/31/186
s 4
f 16/32/187 92/152/188 90/150/184 15/30/183
s 6
f 46/31/186 91/151/185 93/153/189 47/33/190
s 4
f 17/34/191 94/154/192 92/152/188 16/32/187
s 6
f 47/33/190 93/153/189 95/155/193 48/35/194
s off
f 48/35/195 95/155/196 96/156/197 18/36/198
s 4
f 18/36/199 96/156/200 94/154/192 17/34/191
s 6
f 49/37/201 97/157/202 98/158/203 50/38/204
s 4
f 20/39/205 99/159/206 100/160/207 19/40/208
s 6
f 50/38/204 98/158/203 101/161/209 51/41/210
s 4
f 21/42/211 102/162/212 99/159/206 20/39/205
s 6
f 51/41/210 101/161/209 103/163/213 52/43/214
s 4
f 22/44/215 104/164/216 102/162/212 21/42/211
s 6
f 52/43/214 103/163/213 105/165/217 53/45/218
s 4
f 23/46/219 106/166/220 104/164/216 22/44/215
s 6
f 53/45/218 105/165/217 107/167/221 54/47/222
s 4
f 24/48/223 108/168/224 106/166/220 23/46/219
s 6
f 54/47/222 107/167/221 79/139/162 40/19/161
s 4
f 10/22/168 82/142/167 108/168/224 24/48/223
s 8
f 55/49/225 109/169/226 97/157/227 49/37/228
s 4
f 19/40/208 100/160/207 110/170/229 25/50/230
s 8
f 56/51/231 111/171/232 109/169/226 55/49/225
s 4
f 25/50/230 110/170/229 112/172/233 26/52/234
s 9
f 39/17/235 77/137/236 113/173/237 57/53/238
s 4
f 27/54/239 114/174/240 78/138/160 1/18/159
s 9
f 57/53/238 113/173/237 115/175/241 58/55/242
s 4
f 28/56/243 116/176/244 114/174/240 27/54/239
s 9
f 58/55/242 115/175/241 117/177/245 59/57/246
s 4
f 29/58/247 118/178/248 116/176/244 28/56/243
s 9
f 59/57/246 117/177/245 119/179/249 60/59/250
s 4
f 30/60/251 120/180/252 118/178/248 29/58/247
s 9
f 60/59/250 119/179/249 111/171/253 56/51/254
s 4
f 26/52/234 112/172/233 120/180/252 30/60/251
